<svg xmlns="http://www.w3.org/2000/svg" width="1760" height="1360"><path d="M928.32 996.18l152.1-21.5-176.38-698.93zM630.02 971.1l142.7 24.9 51.94-718.7z" fill="#1a4982"/><path d="M792.64 434.8l70.1 32.05 8.3-18.2-70.08-32.03z" fill="#1a4982"/><path d="M864.53 467.28l76.14-35.3-8.42-18.14-76.13 35.3zM753.28 564.8l105.4 48.2 8.32-18.2-105.4-48.18z" fill="#1a4982"/><path d="M861.4 613.05l109.84-50.9-8.4-18.15L853 594.9zM861.4 749.43l145.18-67.28-8.42-18.15L853 731.3z" fill="#1a4982"/><path d="M713.1 684.83l145.5 66.53 8.3-18.2-145.5-66.52zM713.9 823.7l144.52 68.66L867 874.3l-144.52-68.66z" fill="#1a4982"/><path d="M861.5 890l134.6-63.1-8.5-18.12-134.6 63.1z" fill="#1a4982"/><path d="M620.47 967.74l80.73 17.93 82.57-562.32zM1014 987.3l-82.2 9.4-23.4-569.22z" fill="#2760a5"/><path d="M896 254.5c0 16.84-15.22 30.5-34 30.5s-34-13.66-34-30.5 15.22-30.5 34-30.5 34 13.66 34 30.5zM847 445h20v551h-20z" fill="#1a4982"/></svg>